<svg id="Capa_1" data-name="Capa 1" xmlns="http://www.w3.org/2000/svg" viewBox="0 0 376 350"><title>1</title><path d="M16.93,155.72c22.16,4.72,44.22,9.88,66.34,14.79q9.39,2.1,18.82,4.11c1.88.4,2.69-2.49.8-2.9-22.16-4.72-44.23-9.88-66.34-14.79q-9.4-2.1-18.82-4.11c-1.89-.4-2.69,2.49-.8,2.9Z" fill="#ff6716"/><path d="M18.77,154.67c4.33-11.65,8-23.55,11.76-35.38C35.14,104.86,39.67,90.42,44.39,76c1.89-5.77,3.78-11.55,5.9-17.24C51,57,48.06,56.2,47.4,58c-4.33,11.65-8,23.56-11.76,35.39C31,107.8,26.5,122.25,21.78,136.63c-1.89,5.77-3.79,11.55-5.9,17.24-.67,1.81,2.23,2.6,2.89.8Z" fill="#ff6716"/><path d="M48.44,59.84c20.68,5.58,40.48,13.89,60.77,20.67,5.65,1.89,11.33,3.65,17.08,5.2a1.5,1.5,0,0,0,.8-2.89c-20.68-5.59-40.48-13.89-60.77-20.67C60.67,60.26,55,58.5,49.24,57a1.5,1.5,0,0,0-.8,2.89Z" fill="#ff6716"/><path d="M103.82,171.78c3-10.88,6-21.74,9.08-32.6q5.32-18.95,10.63-37.88,2.32-8.31,4.61-16.64a1.5,1.5,0,0,0-2.9-.79c-3,10.88-6,21.74-9.08,32.6q-5.31,18.94-10.62,37.88-2.33,8.31-4.61,16.64a1.5,1.5,0,0,0,2.89.79Z" fill="#ff6716"/><path d="M108.31,156.16C124.44,168,143.93,174,163.8,175a140,140,0,0,0,30.11-1.92c10.93-1.85,21.91-5.73,33.13-4.69,10.33,1,21.82,9.64,32,3.64a1.5,1.5,0,0,0-1.51-2.59c-4.15,2.45-8.91,1.71-13.32.46-4.75-1.35-9.33-3.32-14.21-4.13-11-1.81-21.82,1.48-32.49,3.61-19.21,3.84-39.48,4-58.39-1.45a93.33,93.33,0,0,1-29.25-14.38c-1.56-1.14-3.06,1.46-1.52,2.59Z" fill="#ff6716"/><path d="M259,172.05c6.42-4.06,7.25-12.41,4.61-19a19.81,19.81,0,0,0-6.67-8.77,29.75,29.75,0,0,0-13.34-4.94,86.76,86.76,0,0,0-16.9-.26c-1.92.11-1.93,3.11,0,3,8.58-.48,18-1,25.89,3.06A17.26,17.26,0,0,1,262,161.18a10.17,10.17,0,0,1-4.54,8.28c-1.63,1-.13,3.63,1.51,2.59Z" fill="#ff6716"/><path d="M268.23,128.23c-5.52-5.75-10.74-11.77-16.35-17.43-3.26-3.29-6.61-6.52-10.17-9.48a36.22,36.22,0,0,0-9.35-6.15,14.07,14.07,0,0,0-5.12-.78,94.09,94.09,0,0,0-9.79.32,136.29,136.29,0,0,0-18.29,2.93c-11.76,2.63-23.27,6.39-35.16,8.51a80.18,80.18,0,0,1-19.13,1.31,59.11,59.11,0,0,1-20.13-4.91c-1.75-.77-3.28,1.81-1.52,2.59A66.72,66.72,0,0,0,158.28,110c11.76-1.39,23.11-4.88,34.55-7.78a181,181,0,0,1,18.29-3.8c3.1-.45,6.22-.77,9.35-.93a57.85,57.85,0,0,1,9.12,0,3.42,3.42,0,0,1,.59.12c.31.08.61.17.91.28a12.52,12.52,0,0,1,1.8.84,35.93,35.93,0,0,1,4.54,3,106.8,106.8,0,0,1,9.94,8.83c6.5,6.37,12.44,13.25,18.74,19.81,1.34,1.39,3.46-.73,2.12-2.12Z" fill="#ff6716"/><path d="M91,157.18l16.26-58.86a1.5,1.5,0,0,0-2.89-.8L88.08,156.38a1.5,1.5,0,0,0,2.89.8Z" fill="#ff6716"/><path d="M86.72,132.1l4.07-14.72a1.51,1.51,0,0,0-2.9-.8L83.83,131.3a1.5,1.5,0,0,0,2.89.8Z" fill="#ff6716"/><path d="M124.22,144.94a51.09,51.09,0,0,0,34.29,17.21,48.46,48.46,0,0,0,11.29-.41c1.91-.28,1.1-3.17-.79-2.89a48,48,0,0,1-42.66-16c-1.27-1.47-3.38.66-2.13,2.12Z" fill="#ff6716"/><path d="M132.44,135.19l10.35,6.49a1.52,1.52,0,0,0,2.05-.53,1.54,1.54,0,0,0-.53-2.06L134,132.6a1.5,1.5,0,0,0-1.51,2.59Z" fill="#ff6716"/><path d="M252.81,142.85a22,22,0,0,1,14.75-9.65,39.4,39.4,0,0,1,18.3,1.88c8.56,2.85,15.47,9.29,18.08,18a31.77,31.77,0,0,1-3,24.45,33,33,0,0,1-22.37,16.06,23.48,23.48,0,0,1-17.35-3.41,30.65,30.65,0,0,1-11.1-13.86,36.63,36.63,0,0,1-1.57-4.56,1.5,1.5,0,0,0-2.89.8c3.56,12.71,13.73,24.13,27.67,24.46,11.08.26,21.94-6,28.26-14.93a35.36,35.36,0,0,0,6-26.92,30,30,0,0,0-17.4-21.64,44.29,44.29,0,0,0-19-3.67,25.16,25.16,0,0,0-17.46,7.19,30.68,30.68,0,0,0-3.44,4.26c-1.09,1.6,1.51,3.11,2.59,1.52Z" fill="#ff6716"/><path d="M283,172.62c-5.17,2.33-13.26,5.7-17.44-.11-1.22-1.69-2-4.17-.6-6,1.26-1.69,3.49-2.05,5.45-2.13,4.31-.16,9.51,1.07,13.23-1.76,4.32-3.3,2.91-9.27-.83-12.39-6.05-5.05-13.95-1.09-19.74,2.31a1.5,1.5,0,0,0,1.51,2.59c4.82-2.83,12.26-7.06,17-1.91,1.42,1.54,2.45,4,1.22,5.94-1.12,1.76-3.26,2.19-5.2,2.28-4.32.22-9.52-1.07-13.33,1.61-4.42,3.12-3.52,9-.09,12.5,5.6,5.74,14.1,2.46,20.31-.33,1.75-.79.23-3.38-1.52-2.59Z" fill="#ff6716"/><path d="M274.68,181.58q.29-20.16.58-40.31a1.5,1.5,0,0,0-3,0q-.28,20.16-.58,40.31a1.5,1.5,0,0,0,3,0Z" fill="#ff6716"/><path d="M205.26,236.14c5.24-4.49,11.71-7.63,18.69-7.83a27.75,27.75,0,0,1,16.71,5.21,32.84,32.84,0,0,1,13,33,30.54,30.54,0,0,1-8.71,16.24,27.85,27.85,0,0,1-14.29,6.95,31.72,31.72,0,0,1-29.07-10.44c-9.37-11-9.08-27.82-.24-39a30.31,30.31,0,0,1,3.92-4.09c1.45-1.27-.68-3.39-2.12-2.12-12.12,10.6-15.18,29.54-6.68,43.27a34.39,34.39,0,0,0,30.62,15.78,30.48,30.48,0,0,0,28-20.73,36,36,0,0,0-9.36-38.54,31.94,31.94,0,0,0-17.43-8.27A30.86,30.86,0,0,0,208,230.36a41.51,41.51,0,0,0-4.89,3.66C201.67,235.28,203.8,237.39,205.26,236.14Z" fill="#ff6716"/><path d="M236.87,258.46c-1.28,5.25-3.24,13.33-9.83,13.87-2.12.17-4.76-.42-5.83-2.46s-.13-4,.95-5.71c2.47-3.83,7-7.1,7.17-12,.19-5.69-5.8-8.15-10.64-7-7.56,1.79-9.12,10.61-10,17.12a1.5,1.5,0,0,0,3,0c.7-5.32,1.92-13.49,8.5-14.37,2.05-.28,4.72.24,5.72,2.27.91,1.87.08,3.86-1,5.48-2.49,3.85-6.88,7.05-7.19,12-.35,5.72,5.61,8.41,10.52,7.57,7.43-1.26,9.93-9.63,11.46-15.91.46-1.88-2.43-2.68-2.89-.8Z" fill="#ff6716"/><path d="M239,270.81l-31.45-25.2c-1.5-1.2-3.63.91-2.12,2.12l31.45,25.2c1.49,1.2,3.63-.91,2.12-2.12Z" fill="#ff6716"/><path d="M308.14,226.71c5.24-4.49,11.71-7.63,18.69-7.84a27.76,27.76,0,0,1,16.71,5.22,32.83,32.83,0,0,1,13,33,30.54,30.54,0,0,1-8.71,16.24,27.78,27.78,0,0,1-14.29,6.95,31.69,31.69,0,0,1-29.08-10.44c-9.36-11-9.07-27.81-.23-39a30.23,30.23,0,0,1,3.92-4.08c1.45-1.28-.68-3.39-2.13-2.13-12.12,10.61-15.17,29.54-6.67,43.27A34.37,34.37,0,0,0,330,283.63a30.42,30.42,0,0,0,28-20.73,36,36,0,0,0-9.35-38.54,32,32,0,0,0-17.43-8.26,30.84,30.84,0,0,0-20.29,4.82,44.9,44.9,0,0,0-4.9,3.66C304.55,225.84,306.68,228,308.14,226.71Z" fill="#ff6716"/><path d="M339.75,249c-1.28,5.25-3.24,13.34-9.84,13.87-2.11.18-4.75-.41-5.82-2.45s-.13-4,1-5.72c2.47-3.82,7-7.1,7.17-12,.18-5.69-5.8-8.15-10.64-7-7.56,1.8-9.12,10.61-10,17.13-.11.81.77,1.49,1.5,1.5a1.54,1.54,0,0,0,1.5-1.5c.69-5.33,1.92-13.5,8.5-14.38,2-.27,4.72.24,5.71,2.27.92,1.87.09,3.87-1,5.48-2.49,3.86-6.88,7.05-7.19,12-.35,5.73,5.61,8.41,10.52,7.58,7.43-1.27,9.93-9.63,11.46-15.92.46-1.87-2.43-2.67-2.89-.8Z" fill="#ff6716"/><path d="M341.84,261.38l-31.45-25.21c-1.5-1.2-3.63.91-2.13,2.12l31.46,25.21c1.49,1.19,3.63-.92,2.12-2.12Z" fill="#ff6716"/></svg>